<svg width="200" height="200" viewBox="0 0 200 200" fill="none" xmlns="http://www.w3.org/2000/svg">
<rect width="200" height="200" rx="32" fill="white"/>
<rect x="0.5" y="0.5" width="199" height="199" rx="31.5" stroke="#0B2330" stroke-opacity="0.1"/>
<g clip-path="url(#clip0_198_1503)">
<path d="M78.7535 165C90.7571 165 100.499 155.293 100.499 143.333V121.667H78.7535C66.7499 121.667 57.0078 131.373 57.0078 143.333C57.0078 155.293 66.7499 165 78.7535 165Z" fill="#0ACF83"/>
<path d="M57.0078 99.9999C57.0078 88.0399 66.7499 78.3333 78.7535 78.3333H100.499V121.667H78.7535C66.7499 121.667 57.0078 111.96 57.0078 99.9999Z" fill="#A259FF"/>
<path d="M57.0098 56.6667C57.0098 44.7067 66.7518 35 78.7554 35H100.501V78.3333H78.7554C66.7518 78.3333 57.0098 68.6267 57.0098 56.6667Z" fill="#F24E1E"/>
<path d="M100.5 35H122.246C134.249 35 143.991 44.7067 143.991 56.6667C143.991 68.6267 134.249 78.3333 122.246 78.3333H100.5V35Z" fill="#FF7262"/>
<path d="M143.991 99.9999C143.991 111.96 134.249 121.667 122.246 121.667C110.242 121.667 100.5 111.96 100.5 99.9999C100.5 88.0399 110.242 78.3333 122.246 78.3333C134.249 78.3333 143.991 88.0399 143.991 99.9999Z" fill="#1ABCFE"/>
</g>
<defs>
<clipPath id="clip0_198_1503">
<rect width="87" height="130" fill="white" transform="translate(57 35)"/>
</clipPath>
</defs>
</svg>
