<svg width="200" height="200" viewBox="0 0 200 200" fill="none" xmlns="http://www.w3.org/2000/svg">
<rect width="200" height="200" rx="32" fill="#181818"/>
<rect x="0.5" y="0.5" width="199" height="199" rx="31.5" stroke="#0B2330" stroke-opacity="0.1"/>
<path d="M42.7747 40.1802C41.4472 40.1802 40.2422 40.7427 39.4147 41.6552C38.6722 42.4352 38.2097 43.4827 38.1797 44.6277V44.9352C38.1922 45.4752 38.3022 45.9852 38.4947 46.4577C38.5022 46.4952 38.5172 46.5327 38.5322 46.5727C38.6797 46.9277 38.8722 47.2577 39.1072 47.5602C39.1897 47.6752 39.2822 47.7827 39.3822 47.8852C39.3997 47.9077 39.4222 47.9302 39.4447 47.9552L54.1047 65.3402L59.3997 71.6152L75.2447 90.3977L80.5297 96.6677L94.7197 113.49L100.005 119.758V163.703C103.12 163.703 105.95 162.465 108.027 160.468C108.035 160.468 108.035 160.468 108.035 160.46L109.597 158.608L147.645 113.49L160.675 98.0427C160.737 97.9727 160.797 97.9052 160.852 97.8252C161.13 97.4777 161.355 97.0927 161.517 96.6677C161.725 96.1502 161.835 95.5952 161.835 95.0002V44.7827C161.835 43.5677 161.362 42.4577 160.59 41.6477C159.755 40.7427 158.557 40.1802 157.227 40.1802H42.7747Z" fill="url(#paint0_linear_198_1515)"/>
<path d="M100.007 144.91V163.702C96.8922 163.702 94.0647 162.467 91.9847 160.467C91.9747 160.467 91.9747 160.467 91.9747 160.46L90.4147 158.607L52.3672 113.49L39.4147 98.135C39.3847 98.1125 39.3622 98.08 39.3397 98.05L39.1372 97.81C39.1197 97.795 39.1072 97.78 39.0897 97.7575C38.8447 97.425 38.6347 97.0625 38.4872 96.6675C38.3022 96.1975 38.1947 95.6875 38.1797 95.155V94.8475C38.2097 93.69 38.6722 92.655 39.4147 91.865C40.2497 90.9625 41.4472 90.3975 42.7772 90.3975H54.0147L59.3022 96.6675L73.4897 113.49L96.7522 141.065L99.9997 144.917L100.007 144.91Z" fill="#FCD1CA"/>
<path d="M100.007 119.757V144.91L99.9997 144.917L96.7522 141.065L73.4897 113.487L59.3022 96.6673L54.0147 90.3973L39.3297 72.9973C39.2697 72.9273 39.2072 72.8498 39.1447 72.7748C38.8747 72.4248 38.6497 72.0398 38.4872 71.6148C38.3022 71.1448 38.1947 70.6348 38.1797 70.0948V69.7848C38.2097 68.6373 38.6722 67.5998 39.4147 66.8148C40.2422 65.9023 41.4472 65.3398 42.7772 65.3398H54.1072L59.4022 71.6148L75.2447 90.3973L80.5297 96.6673L94.7197 113.487L100.007 119.757Z" fill="#FF9D8D"/>
<defs>
<linearGradient id="paint0_linear_198_1515" x1="146.896" y1="27.9634" x2="54.6284" y2="120.332" gradientUnits="userSpaceOnUse">
<stop stop-color="#FF6660"/>
<stop offset="1" stop-color="#FB4444"/>
</linearGradient>
</defs>
</svg>
