<svg width="200" height="200" viewBox="0 0 200 200" fill="none" xmlns="http://www.w3.org/2000/svg">
<rect width="200" height="200" rx="32" fill="#FEEEB7"/>
<rect x="0.5" y="0.5" width="199" height="199" rx="31.5" stroke="#0B2330" stroke-opacity="0.1"/>
<path d="M54.84 32.2575L99.84 27.5L144.838 32.2575L179.678 79.025L99.84 171.998L20 79.025L54.84 32.2575Z" fill="#FDB300"/>
<path d="M52.34 79.0249L99.84 171.997L20 79.0249H52.34Z" fill="#EA6C00"/>
<path d="M147.34 79.0249L99.8398 171.997L179.677 79.0249H147.34Z" fill="#EA6C00"/>
<path d="M52.3398 79.0249H147.34L99.8398 171.997L52.3398 79.0249Z" fill="#FDAD00"/>
<path d="M99.8398 27.5L54.8398 32.2575L52.3398 79.025L99.8398 27.5Z" fill="#FDD231"/>
<path d="M99.8398 27.5L144.84 32.2575L147.34 79.025L99.8398 27.5Z" fill="#FDD231"/>
<path d="M179.678 79.0248L144.838 32.2573L147.34 79.0248H179.678ZM20 79.0248L54.8375 32.2573L52.34 79.0248H20Z" fill="#FDAD00"/>
<path d="M99.8398 27.5L52.3398 79.025H147.34L99.8398 27.5Z" fill="#FEEEB7"/>
</svg>
