<svg width="200" height="200" viewBox="0 0 200 200" fill="none" xmlns="http://www.w3.org/2000/svg">
<rect width="200" height="200" rx="32" fill="#611F69"/>
<rect x="0.5" y="0.5" width="199" height="199" rx="31.5" stroke="#0B2330" stroke-opacity="0.1"/>
<path d="M59.4125 118.47C59.4125 126.563 52.8025 133.175 44.7075 133.175C36.6125 133.175 30 126.563 30 118.47C30 110.375 36.6125 103.763 44.7075 103.763H59.4125V118.47Z" fill="#E01E5A"/>
<path d="M66.8281 118.47C66.8281 110.375 73.4381 103.763 81.5331 103.763C89.6281 103.763 96.2406 110.375 96.2406 118.47V155.293C96.2406 163.388 89.6281 170 81.5331 170C73.4381 170 66.8281 163.388 66.8281 155.293V118.47Z" fill="#E01E5A"/>
<path d="M81.5331 59.4125C73.4381 59.4125 66.8281 52.8025 66.8281 44.7075C66.8281 36.6125 73.4381 30 81.5331 30C89.6281 30 96.2406 36.6125 96.2406 44.7075V59.4125H81.5331Z" fill="#36C5F0"/>
<path d="M81.53 66.825C89.625 66.825 96.2375 73.435 96.2375 81.53C96.2375 89.625 89.625 96.2375 81.53 96.2375H44.7075C36.6125 96.2375 30 89.625 30 81.53C30 73.435 36.6125 66.825 44.7075 66.825H81.53Z" fill="#36C5F0"/>
<path d="M140.59 81.53C140.59 73.435 147.202 66.825 155.297 66.825C163.392 66.825 170.005 73.435 170.005 81.53C170.005 89.625 163.392 96.2375 155.297 96.2375H140.59V81.53Z" fill="#2EB67D"/>
<path d="M133.178 81.53C133.178 89.625 126.566 96.2375 118.473 96.2375C110.378 96.2375 103.766 89.625 103.766 81.53V44.7075C103.766 36.6125 110.378 30 118.473 30C126.566 30 133.178 36.6125 133.178 44.7075V81.53Z" fill="#2EB67D"/>
<path d="M118.473 140.588C126.566 140.588 133.178 147.2 133.178 155.293C133.178 163.388 126.566 170 118.473 170C110.378 170 103.766 163.388 103.766 155.293V140.588H118.473Z" fill="#ECB22E"/>
<path d="M118.473 133.175C110.378 133.175 103.766 126.563 103.766 118.47C103.766 110.375 110.378 103.763 118.473 103.763H155.296C163.391 103.763 170.003 110.375 170.003 118.47C170.003 126.563 163.391 133.175 155.296 133.175H118.473Z" fill="#ECB22E"/>
</svg>
