<svg width="200" height="200" viewBox="0 0 200 200" fill="none" xmlns="http://www.w3.org/2000/svg">
<rect width="200" height="200" rx="32" fill="#011936"/>
<rect x="0.5" y="0.5" width="199" height="199" rx="31.5" stroke="#0B2330" stroke-opacity="0.1"/>
<path d="M100 65C100 45.6325 115.632 30 135 30C154.368 30 170 45.6325 170 65C170 84.3675 154.368 100 135 100C115.632 100 100 84.3675 100 65Z" fill="#158D71"/>
<path d="M30 100H100V135C100 154.368 84.3675 170 65 170C45.6325 170 30 154.368 30 135V100Z" fill="#158D71"/>
<path d="M100 135C100 115.632 115.632 100 135 100C154.368 100 170 115.632 170 135V170H100V135Z" fill="white"/>
<path d="M30 65C30 45.6325 45.6325 30 65 30C84.3675 30 100 45.6325 100 65C100 84.3675 84.3675 100 65 100C45.6325 100 30 84.3675 30 65Z" fill="white"/>
</svg>
